0
SECTION
2
HEADER
9
$INSUNITS
70
4
0
ENDSEC
0
SECTION
2
TABLES
0
TABLE
2
LTYPE
0
LTYPE
72
65
70
64
2
CONTINUOUS
3
______
73
0
40
0
0
ENDTAB
0
TABLE
2
LAYER
0
ENDTAB
0
ENDSEC
0
SECTION
2
ENTITIES
0
LINE
8
0
10
3.025
20
-2.525
11
16.025
21
-2.525
0
LINE
8
0
10
3.025
20
-16.525
11
16.025
21
-16.525
0
LINE
8
0
10
2.525
20
-3.025
11
2.525
21
-16.025
0
LINE
8
0
10
16.525
20
-3.025
11
16.525
21
-16.025
0
ARC
8
0
10
3.025
20
-3.025
40
0.5
50
90
51
180
0
ARC
8
0
10
16.025
20
-3.025
40
0.5
50
0
51
90
0
ARC
8
0
10
3.025
20
-16.025
40
0.5
50
180
51
270
0
ARC
8
0
10
16.025
20
-16.025
40
0.5
50
270
51
0
0
LINE
8
0
10
22.075
20
-2.525
11
35.075
21
-2.525
0
LINE
8
0
10
22.075
20
-16.525
11
35.075
21
-16.525
0
LINE
8
0
10
21.575
20
-3.025
11
21.575
21
-16.025
0
LINE
8
0
10
35.575
20
-3.025
11
35.575
21
-16.025
0
ARC
8
0
10
22.075
20
-3.025
40
0.5
50
90
51
180
0
ARC
8
0
10
35.075
20
-3.025
40
0.5
50
0
51
90
0
ARC
8
0
10
22.075
20
-16.025
40
0.5
50
180
51
270
0
ARC
8
0
10
35.075
20
-16.025
40
0.5
50
270
51
0
0
LINE
8
0
10
41.125
20
-2.525
11
54.125
21
-2.525
0
LINE
8
0
10
41.125
20
-16.525
11
54.125
21
-16.525
0
LINE
8
0
10
40.625
20
-3.025
11
40.625
21
-16.025
0
LINE
8
0
10
54.625
20
-3.025
11
54.625
21
-16.025
0
ARC
8
0
10
41.125
20
-3.025
40
0.5
50
90
51
180
0
ARC
8
0
10
54.125
20
-3.025
40
0.5
50
0
51
90
0
ARC
8
0
10
41.125
20
-16.025
40
0.5
50
180
51
270
0
ARC
8
0
10
54.125
20
-16.025
40
0.5
50
270
51
0
0
LINE
8
0
10
60.175
20
-2.525
11
73.175
21
-2.525
0
LINE
8
0
10
60.175
20
-16.525
11
73.175
21
-16.525
0
LINE
8
0
10
59.675
20
-3.025
11
59.675
21
-16.025
0
LINE
8
0
10
73.675
20
-3.025
11
73.675
21
-16.025
0
ARC
8
0
10
60.175
20
-3.025
40
0.5
50
90
51
180
0
ARC
8
0
10
73.175
20
-3.025
40
0.5
50
0
51
90
0
ARC
8
0
10
60.175
20
-16.025
40
0.5
50
180
51
270
0
ARC
8
0
10
73.175
20
-16.025
40
0.5
50
270
51
0
0
LINE
8
0
10
79.225
20
-2.525
11
92.225
21
-2.525
0
LINE
8
0
10
79.225
20
-16.525
11
92.225
21
-16.525
0
LINE
8
0
10
78.725
20
-3.025
11
78.725
21
-16.025
0
LINE
8
0
10
92.725
20
-3.025
11
92.725
21
-16.025
0
ARC
8
0
10
79.225
20
-3.025
40
0.5
50
90
51
180
0
ARC
8
0
10
92.225
20
-3.025
40
0.5
50
0
51
90
0
ARC
8
0
10
79.225
20
-16.025
40
0.5
50
180
51
270
0
ARC
8
0
10
92.225
20
-16.025
40
0.5
50
270
51
0
0
LINE
8
0
10
3.025
20
-21.575
11
16.025
21
-21.575
0
LINE
8
0
10
3.025
20
-35.575
11
16.025
21
-35.575
0
LINE
8
0
10
2.525
20
-22.075
11
2.525
21
-35.075
0
LINE
8
0
10
16.525
20
-22.075
11
16.525
21
-35.075
0
ARC
8
0
10
3.025
20
-22.075
40
0.5
50
90
51
180
0
ARC
8
0
10
16.025
20
-22.075
40
0.5
50
0
51
90
0
ARC
8
0
10
3.025
20
-35.075
40
0.5
50
180
51
270
0
ARC
8
0
10
16.025
20
-35.075
40
0.5
50
270
51
0
0
LINE
8
0
10
22.075
20
-21.575
11
35.075
21
-21.575
0
LINE
8
0
10
22.075
20
-35.575
11
35.075
21
-35.575
0
LINE
8
0
10
21.575
20
-22.075
11
21.575
21
-35.075
0
LINE
8
0
10
35.575
20
-22.075
11
35.575
21
-35.075
0
ARC
8
0
10
22.075
20
-22.075
40
0.5
50
90
51
180
0
ARC
8
0
10
35.075
20
-22.075
40
0.5
50
0
51
90
0
ARC
8
0
10
22.075
20
-35.075
40
0.5
50
180
51
270
0
ARC
8
0
10
35.075
20
-35.075
40
0.5
50
270
51
0
0
LINE
8
0
10
41.125
20
-21.575
11
54.125
21
-21.575
0
LINE
8
0
10
41.125
20
-35.575
11
54.125
21
-35.575
0
LINE
8
0
10
40.625
20
-22.075
11
40.625
21
-35.075
0
LINE
8
0
10
54.625
20
-22.075
11
54.625
21
-35.075
0
ARC
8
0
10
41.125
20
-22.075
40
0.5
50
90
51
180
0
ARC
8
0
10
54.125
20
-22.075
40
0.5
50
0
51
90
0
ARC
8
0
10
41.125
20
-35.075
40
0.5
50
180
51
270
0
ARC
8
0
10
54.125
20
-35.075
40
0.5
50
270
51
0
0
LINE
8
0
10
60.175
20
-21.575
11
73.175
21
-21.575
0
LINE
8
0
10
60.175
20
-35.575
11
73.175
21
-35.575
0
LINE
8
0
10
59.675
20
-22.075
11
59.675
21
-35.075
0
LINE
8
0
10
73.675
20
-22.075
11
73.675
21
-35.075
0
ARC
8
0
10
60.175
20
-22.075
40
0.5
50
90
51
180
0
ARC
8
0
10
73.175
20
-22.075
40
0.5
50
0
51
90
0
ARC
8
0
10
60.175
20
-35.075
40
0.5
50
180
51
270
0
ARC
8
0
10
73.175
20
-35.075
40
0.5
50
270
51
0
0
LINE
8
0
10
79.225
20
-21.575
11
92.225
21
-21.575
0
LINE
8
0
10
79.225
20
-35.575
11
92.225
21
-35.575
0
LINE
8
0
10
78.725
20
-22.075
11
78.725
21
-35.075
0
LINE
8
0
10
92.725
20
-22.075
11
92.725
21
-35.075
0
ARC
8
0
10
79.225
20
-22.075
40
0.5
50
90
51
180
0
ARC
8
0
10
92.225
20
-22.075
40
0.5
50
0
51
90
0
ARC
8
0
10
79.225
20
-35.075
40
0.5
50
180
51
270
0
ARC
8
0
10
92.225
20
-35.075
40
0.5
50
270
51
0
0
LINE
8
0
10
3.025
20
-40.625
11
16.025
21
-40.625
0
LINE
8
0
10
3.025
20
-54.625
11
16.025
21
-54.625
0
LINE
8
0
10
2.525
20
-41.125
11
2.525
21
-54.125
0
LINE
8
0
10
16.525
20
-41.125
11
16.525
21
-54.125
0
ARC
8
0
10
3.025
20
-41.125
40
0.5
50
90
51
180
0
ARC
8
0
10
16.025
20
-41.125
40
0.5
50
0
51
90
0
ARC
8
0
10
3.025
20
-54.125
40
0.5
50
180
51
270
0
ARC
8
0
10
16.025
20
-54.125
40
0.5
50
270
51
0
0
LINE
8
0
10
22.075
20
-40.625
11
35.075
21
-40.625
0
LINE
8
0
10
22.075
20
-54.625
11
35.075
21
-54.625
0
LINE
8
0
10
21.575
20
-41.125
11
21.575
21
-54.125
0
LINE
8
0
10
35.575
20
-41.125
11
35.575
21
-54.125
0
ARC
8
0
10
22.075
20
-41.125
40
0.5
50
90
51
180
0
ARC
8
0
10
35.075
20
-41.125
40
0.5
50
0
51
90
0
ARC
8
0
10
22.075
20
-54.125
40
0.5
50
180
51
270
0
ARC
8
0
10
35.075
20
-54.125
40
0.5
50
270
51
0
0
LINE
8
0
10
41.125
20
-40.625
11
54.125
21
-40.625
0
LINE
8
0
10
41.125
20
-54.625
11
54.125
21
-54.625
0
LINE
8
0
10
40.625
20
-41.125
11
40.625
21
-54.125
0
LINE
8
0
10
54.625
20
-41.125
11
54.625
21
-54.125
0
ARC
8
0
10
41.125
20
-41.125
40
0.5
50
90
51
180
0
ARC
8
0
10
54.125
20
-41.125
40
0.5
50
0
51
90
0
ARC
8
0
10
41.125
20
-54.125
40
0.5
50
180
51
270
0
ARC
8
0
10
54.125
20
-54.125
40
0.5
50
270
51
0
0
LINE
8
0
10
60.175
20
-40.625
11
73.175
21
-40.625
0
LINE
8
0
10
60.175
20
-54.625
11
73.175
21
-54.625
0
LINE
8
0
10
59.675
20
-41.125
11
59.675
21
-54.125
0
LINE
8
0
10
73.675
20
-41.125
11
73.675
21
-54.125
0
ARC
8
0
10
60.175
20
-41.125
40
0.5
50
90
51
180
0
ARC
8
0
10
73.175
20
-41.125
40
0.5
50
0
51
90
0
ARC
8
0
10
60.175
20
-54.125
40
0.5
50
180
51
270
0
ARC
8
0
10
73.175
20
-54.125
40
0.5
50
270
51
0
0
LINE
8
0
10
79.225
20
-40.625
11
92.225
21
-40.625
0
LINE
8
0
10
79.225
20
-54.625
11
92.225
21
-54.625
0
LINE
8
0
10
78.725
20
-41.125
11
78.725
21
-54.125
0
LINE
8
0
10
92.725
20
-41.125
11
92.725
21
-54.125
0
ARC
8
0
10
79.225
20
-41.125
40
0.5
50
90
51
180
0
ARC
8
0
10
92.225
20
-41.125
40
0.5
50
0
51
90
0
ARC
8
0
10
79.225
20
-54.125
40
0.5
50
180
51
270
0
ARC
8
0
10
92.225
20
-54.125
40
0.5
50
270
51
0
0
LINE
8
0
10
69.7
20
-59.675
11
82.7
21
-59.675
0
LINE
8
0
10
69.7
20
-73.675
11
82.7
21
-73.675
0
LINE
8
0
10
69.2
20
-60.175
11
69.2
21
-73.175
0
LINE
8
0
10
83.2
20
-60.175
11
83.2
21
-73.175
0
ARC
8
0
10
69.7
20
-60.175
40
0.5
50
90
51
180
0
ARC
8
0
10
82.7
20
-60.175
40
0.5
50
0
51
90
0
ARC
8
0
10
69.7
20
-73.175
40
0.5
50
180
51
270
0
ARC
8
0
10
82.7
20
-73.175
40
0.5
50
270
51
0
0
LINE
8
0
10
88.75
20
-59.675
11
101.75
21
-59.675
0
LINE
8
0
10
88.75
20
-73.675
11
101.75
21
-73.675
0
LINE
8
0
10
88.25
20
-60.175
11
88.25
21
-73.175
0
LINE
8
0
10
102.25
20
-60.175
11
102.25
21
-73.175
0
ARC
8
0
10
88.75
20
-60.175
40
0.5
50
90
51
180
0
ARC
8
0
10
101.75
20
-60.175
40
0.5
50
0
51
90
0
ARC
8
0
10
88.75
20
-73.175
40
0.5
50
180
51
270
0
ARC
8
0
10
101.75
20
-73.175
40
0.5
50
270
51
0
0
LINE
8
0
10
145.9
20
-2.525
11
158.9
21
-2.525
0
LINE
8
0
10
145.9
20
-16.525
11
158.9
21
-16.525
0
LINE
8
0
10
145.4
20
-3.025
11
145.4
21
-16.025
0
LINE
8
0
10
159.4
20
-3.025
11
159.4
21
-16.025
0
ARC
8
0
10
145.9
20
-3.025
40
0.5
50
90
51
180
0
ARC
8
0
10
158.9
20
-3.025
40
0.5
50
0
51
90
0
ARC
8
0
10
145.9
20
-16.025
40
0.5
50
180
51
270
0
ARC
8
0
10
158.9
20
-16.025
40
0.5
50
270
51
0
0
LINE
8
0
10
164.95
20
-2.525
11
177.95
21
-2.525
0
LINE
8
0
10
164.95
20
-16.525
11
177.95
21
-16.525
0
LINE
8
0
10
164.45
20
-3.025
11
164.45
21
-16.025
0
LINE
8
0
10
178.45
20
-3.025
11
178.45
21
-16.025
0
ARC
8
0
10
164.95
20
-3.025
40
0.5
50
90
51
180
0
ARC
8
0
10
177.95
20
-3.025
40
0.5
50
0
51
90
0
ARC
8
0
10
164.95
20
-16.025
40
0.5
50
180
51
270
0
ARC
8
0
10
177.95
20
-16.025
40
0.5
50
270
51
0
0
LINE
8
0
10
184
20
-2.525
11
197
21
-2.525
0
LINE
8
0
10
184
20
-16.525
11
197
21
-16.525
0
LINE
8
0
10
183.5
20
-3.025
11
183.5
21
-16.025
0
LINE
8
0
10
197.5
20
-3.025
11
197.5
21
-16.025
0
ARC
8
0
10
184
20
-3.025
40
0.5
50
90
51
180
0
ARC
8
0
10
197
20
-3.025
40
0.5
50
0
51
90
0
ARC
8
0
10
184
20
-16.025
40
0.5
50
180
51
270
0
ARC
8
0
10
197
20
-16.025
40
0.5
50
270
51
0
0
LINE
8
0
10
203.05
20
-2.525
11
216.05
21
-2.525
0
LINE
8
0
10
203.05
20
-16.525
11
216.05
21
-16.525
0
LINE
8
0
10
202.55
20
-3.025
11
202.55
21
-16.025
0
LINE
8
0
10
216.55
20
-3.025
11
216.55
21
-16.025
0
ARC
8
0
10
203.05
20
-3.025
40
0.5
50
90
51
180
0
ARC
8
0
10
216.05
20
-3.025
40
0.5
50
0
51
90
0
ARC
8
0
10
203.05
20
-16.025
40
0.5
50
180
51
270
0
ARC
8
0
10
216.05
20
-16.025
40
0.5
50
270
51
0
0
LINE
8
0
10
222.1
20
-2.525
11
235.1
21
-2.525
0
LINE
8
0
10
222.1
20
-16.525
11
235.1
21
-16.525
0
LINE
8
0
10
221.6
20
-3.025
11
221.6
21
-16.025
0
LINE
8
0
10
235.6
20
-3.025
11
235.6
21
-16.025
0
ARC
8
0
10
222.1
20
-3.025
40
0.5
50
90
51
180
0
ARC
8
0
10
235.1
20
-3.025
40
0.5
50
0
51
90
0
ARC
8
0
10
222.1
20
-16.025
40
0.5
50
180
51
270
0
ARC
8
0
10
235.1
20
-16.025
40
0.5
50
270
51
0
0
LINE
8
0
10
145.9
20
-21.575
11
158.9
21
-21.575
0
LINE
8
0
10
145.9
20
-35.575
11
158.9
21
-35.575
0
LINE
8
0
10
145.4
20
-22.075
11
145.4
21
-35.075
0
LINE
8
0
10
159.4
20
-22.075
11
159.4
21
-35.075
0
ARC
8
0
10
145.9
20
-22.075
40
0.5
50
90
51
180
0
ARC
8
0
10
158.9
20
-22.075
40
0.5
50
0
51
90
0
ARC
8
0
10
145.9
20
-35.075
40
0.5
50
180
51
270
0
ARC
8
0
10
158.9
20
-35.075
40
0.5
50
270
51
0
0
LINE
8
0
10
164.95
20
-21.575
11
177.95
21
-21.575
0
LINE
8
0
10
164.95
20
-35.575
11
177.95
21
-35.575
0
LINE
8
0
10
164.45
20
-22.075
11
164.45
21
-35.075
0
LINE
8
0
10
178.45
20
-22.075
11
178.45
21
-35.075
0
ARC
8
0
10
164.95
20
-22.075
40
0.5
50
90
51
180
0
ARC
8
0
10
177.95
20
-22.075
40
0.5
50
0
51
90
0
ARC
8
0
10
164.95
20
-35.075
40
0.5
50
180
51
270
0
ARC
8
0
10
177.95
20
-35.075
40
0.5
50
270
51
0
0
LINE
8
0
10
184
20
-21.575
11
197
21
-21.575
0
LINE
8
0
10
184
20
-35.575
11
197
21
-35.575
0
LINE
8
0
10
183.5
20
-22.075
11
183.5
21
-35.075
0
LINE
8
0
10
197.5
20
-22.075
11
197.5
21
-35.075
0
ARC
8
0
10
184
20
-22.075
40
0.5
50
90
51
180
0
ARC
8
0
10
197
20
-22.075
40
0.5
50
0
51
90
0
ARC
8
0
10
184
20
-35.075
40
0.5
50
180
51
270
0
ARC
8
0
10
197
20
-35.075
40
0.5
50
270
51
0
0
LINE
8
0
10
203.05
20
-21.575
11
216.05
21
-21.575
0
LINE
8
0
10
203.05
20
-35.575
11
216.05
21
-35.575
0
LINE
8
0
10
202.55
20
-22.075
11
202.55
21
-35.075
0
LINE
8
0
10
216.55
20
-22.075
11
216.55
21
-35.075
0
ARC
8
0
10
203.05
20
-22.075
40
0.5
50
90
51
180
0
ARC
8
0
10
216.05
20
-22.075
40
0.5
50
0
51
90
0
ARC
8
0
10
203.05
20
-35.075
40
0.5
50
180
51
270
0
ARC
8
0
10
216.05
20
-35.075
40
0.5
50
270
51
0
0
LINE
8
0
10
222.1
20
-21.575
11
235.1
21
-21.575
0
LINE
8
0
10
222.1
20
-35.575
11
235.1
21
-35.575
0
LINE
8
0
10
221.6
20
-22.075
11
221.6
21
-35.075
0
LINE
8
0
10
235.6
20
-22.075
11
235.6
21
-35.075
0
ARC
8
0
10
222.1
20
-22.075
40
0.5
50
90
51
180
0
ARC
8
0
10
235.1
20
-22.075
40
0.5
50
0
51
90
0
ARC
8
0
10
222.1
20
-35.075
40
0.5
50
180
51
270
0
ARC
8
0
10
235.1
20
-35.075
40
0.5
50
270
51
0
0
LINE
8
0
10
145.9
20
-40.625
11
158.9
21
-40.625
0
LINE
8
0
10
145.9
20
-54.625
11
158.9
21
-54.625
0
LINE
8
0
10
145.4
20
-41.125
11
145.4
21
-54.125
0
LINE
8
0
10
159.4
20
-41.125
11
159.4
21
-54.125
0
ARC
8
0
10
145.9
20
-41.125
40
0.5
50
90
51
180
0
ARC
8
0
10
158.9
20
-41.125
40
0.5
50
0
51
90
0
ARC
8
0
10
145.9
20
-54.125
40
0.5
50
180
51
270
0
ARC
8
0
10
158.9
20
-54.125
40
0.5
50
270
51
0
0
LINE
8
0
10
164.95
20
-40.625
11
177.95
21
-40.625
0
LINE
8
0
10
164.95
20
-54.625
11
177.95
21
-54.625
0
LINE
8
0
10
164.45
20
-41.125
11
164.45
21
-54.125
0
LINE
8
0
10
178.45
20
-41.125
11
178.45
21
-54.125
0
ARC
8
0
10
164.95
20
-41.125
40
0.5
50
90
51
180
0
ARC
8
0
10
177.95
20
-41.125
40
0.5
50
0
51
90
0
ARC
8
0
10
164.95
20
-54.125
40
0.5
50
180
51
270
0
ARC
8
0
10
177.95
20
-54.125
40
0.5
50
270
51
0
0
LINE
8
0
10
184
20
-40.625
11
197
21
-40.625
0
LINE
8
0
10
184
20
-54.625
11
197
21
-54.625
0
LINE
8
0
10
183.5
20
-41.125
11
183.5
21
-54.125
0
LINE
8
0
10
197.5
20
-41.125
11
197.5
21
-54.125
0
ARC
8
0
10
184
20
-41.125
40
0.5
50
90
51
180
0
ARC
8
0
10
197
20
-41.125
40
0.5
50
0
51
90
0
ARC
8
0
10
184
20
-54.125
40
0.5
50
180
51
270
0
ARC
8
0
10
197
20
-54.125
40
0.5
50
270
51
0
0
LINE
8
0
10
203.05
20
-40.625
11
216.05
21
-40.625
0
LINE
8
0
10
203.05
20
-54.625
11
216.05
21
-54.625
0
LINE
8
0
10
202.55
20
-41.125
11
202.55
21
-54.125
0
LINE
8
0
10
216.55
20
-41.125
11
216.55
21
-54.125
0
ARC
8
0
10
203.05
20
-41.125
40
0.5
50
90
51
180
0
ARC
8
0
10
216.05
20
-41.125
40
0.5
50
0
51
90
0
ARC
8
0
10
203.05
20
-54.125
40
0.5
50
180
51
270
0
ARC
8
0
10
216.05
20
-54.125
40
0.5
50
270
51
0
0
LINE
8
0
10
222.1
20
-40.625
11
235.1
21
-40.625
0
LINE
8
0
10
222.1
20
-54.625
11
235.1
21
-54.625
0
LINE
8
0
10
221.6
20
-41.125
11
221.6
21
-54.125
0
LINE
8
0
10
235.6
20
-41.125
11
235.6
21
-54.125
0
ARC
8
0
10
222.1
20
-41.125
40
0.5
50
90
51
180
0
ARC
8
0
10
235.1
20
-41.125
40
0.5
50
0
51
90
0
ARC
8
0
10
222.1
20
-54.125
40
0.5
50
180
51
270
0
ARC
8
0
10
235.1
20
-54.125
40
0.5
50
270
51
0
0
LINE
8
0
10
136.375
20
-59.675
11
149.375
21
-59.675
0
LINE
8
0
10
136.375
20
-73.675
11
149.375
21
-73.675
0
LINE
8
0
10
135.875
20
-60.175
11
135.875
21
-73.175
0
LINE
8
0
10
149.875
20
-60.175
11
149.875
21
-73.175
0
ARC
8
0
10
136.375
20
-60.175
40
0.5
50
90
51
180
0
ARC
8
0
10
149.375
20
-60.175
40
0.5
50
0
51
90
0
ARC
8
0
10
136.375
20
-73.175
40
0.5
50
180
51
270
0
ARC
8
0
10
149.375
20
-73.175
40
0.5
50
270
51
0
0
LINE
8
0
10
155.425
20
-59.675
11
168.425
21
-59.675
0
LINE
8
0
10
155.425
20
-73.675
11
168.425
21
-73.675
0
LINE
8
0
10
154.925
20
-60.175
11
154.925
21
-73.175
0
LINE
8
0
10
168.925
20
-60.175
11
168.925
21
-73.175
0
ARC
8
0
10
155.425
20
-60.175
40
0.5
50
90
51
180
0
ARC
8
0
10
168.425
20
-60.175
40
0.5
50
0
51
90
0
ARC
8
0
10
155.425
20
-73.175
40
0.5
50
180
51
270
0
ARC
8
0
10
168.425
20
-73.175
40
0.5
50
270
51
0
0
LINE
8
0
10
0
20
-76.2
11
238.125
21
-76.2
0
LINE
8
0
10
0
20
0
11
238.125
21
0
0
LINE
8
0
10
0
20
-76.2
11
0
21
0
0
LINE
8
0
10
238.125
20
-76.2
11
238.125
21
0
0
ENDSEC
0
EOF